<svg version="1.2" xmlns="http://www.w3.org/2000/svg" viewBox="0 0 2000 2000" width="512" height="512"><style>.a{fill:none;stroke:#000;stroke-linecap:round;stroke-linejoin:round;stroke-width:60}</style><path class="a" d="m101.8 1440.6c-10.8-83.4-15.8-223.3-9.6-256.9 21.8-117.7 70.6-557.4 124.2-563.6 37.2-4.2 118.6 450.1 261.7 543.2 28.6 18.6 63.2-0.6 95.4-12.1 52.1-18.7 137.2-389.1 148-421.5 40.4-121.9 49.6-321.1 69.7-400.9 11.3-44.8 17.8-67.9 26.9-75.5"/><path class="a" d="m734.5 1108.2c0 0 239.2-328.4 355.1-462.1 115-132.7 429.6-445.2 429.6-445.2"/><path class="a" d="m850.2 1159.5l1073.5-410.5"/><path class="a" d="m753.5 1469.1c0 0 259.2 134.4 332.6 198.4 50.6 44 113.6 115.1 110.3 141.8-2 16.2-258.1-35.4-354-59.4-33.2-8.3-267.8-75.1-320-87-54.3-12.4-145.6-17.9-145.6-17.9"/></svg>